<?xml version="1.0" standalone="no"?>
<!DOCTYPE svg PUBLIC "-//W3C//DTD SVG 20010904//EN"
 "http://www.w3.org/TR/2001/REC-SVG-20010904/DTD/svg10.dtd">
<svg version="1.0" xmlns="http://www.w3.org/2000/svg"
 width="513.000000pt" height="513.000000pt" viewBox="0 0 513.000000 513.000000"
 preserveAspectRatio="xMidYMid meet">
<metadata>
Created by potrace 1.14, written by Peter Selinger 2001-2017
</metadata>
<g transform="translate(0.000000,513.000000) scale(0.100000,-0.100000)"
fill="#000000" stroke="none">
<path d="M1800 5119 c-79 -13 -150 -77 -171 -151 -6 -25 -9 -90 -7 -158 3
-105 6 -119 31 -157 32 -50 87 -90 137 -98 19 -3 38 -9 41 -13 6 -7 84 -282
94 -332 3 -14 8 -41 12 -60 4 -19 7 -67 6 -106 -1 -88 -33 -165 -114 -274 -54
-72 -90 -115 -243 -283 -217 -240 -336 -468 -362 -692 -3 -22 -7 -46 -9 -54
-6 -16 -7 -230 -1 -286 7 -65 25 -185 41 -272 3 -16 10 -50 15 -78 11 -60 57
-308 64 -348 3 -15 11 -54 16 -87 16 -89 18 -97 61 -325 47 -243 42 -215 80
-415 16 -85 31 -162 34 -170 2 -8 7 -28 9 -45 5 -24 44 -219 62 -300 2 -11 7
-35 10 -54 20 -121 89 -245 163 -294 90 -60 98 -61 761 -62 333 0 634 3 669 8
66 8 143 41 187 79 54 48 114 173 127 268 4 29 60 315 182 940 9 41 17 86 20
100 3 14 10 50 16 80 18 94 19 102 39 205 11 55 33 170 49 255 36 187 37 193
55 300 8 47 18 101 21 120 4 19 9 109 11 200 5 237 -21 367 -111 555 -67 140
-118 211 -299 414 -357 400 -372 448 -259 836 19 66 36 131 39 145 6 31 13 38
44 44 70 13 123 52 154 114 20 40 24 64 25 154 2 130 -9 177 -56 229 -69 76
-20 72 -858 73 -413 1 -766 -1 -785 -5z m1529 -158 c23 -18 25 -25 25 -120 0
-92 -2 -104 -22 -124 l-23 -22 -749 0 -750 0 -21 22 c-19 18 -22 34 -24 105
-1 90 7 126 32 146 13 9 181 12 762 12 712 0 747 -1 770 -19z m-193 -420 c-9
-13 -88 -309 -101 -376 -17 -89 -13 -217 11 -275 33 -85 145 -242 259 -365 20
-22 61 -67 90 -100 29 -33 65 -73 80 -90 106 -119 198 -273 239 -400 25 -77
52 -223 51 -275 l0 -25 -1205 0 -1205 0 2 50 c4 70 30 197 58 277 51 147 140
278 320 474 5 6 28 31 50 55 51 55 172 202 206 249 71 99 111 210 108 298 -2
69 -30 206 -70 345 -21 76 -39 144 -39 151 0 10 116 13 575 13 316 0 573 -2
571 -6z m629 -2002 c-5 -85 -12 -148 -31 -254 -26 -150 -23 -144 -63 -155 -20
-6 -225 -60 -456 -121 -231 -61 -505 -133 -610 -160 -104 -28 -266 -70 -360
-95 -93 -24 -289 -75 -435 -114 -145 -38 -270 -70 -276 -70 -9 0 -62 236 -88
395 l-6 31 183 48 c100 27 241 64 312 83 153 40 236 62 365 98 52 15 102 28
110 30 8 2 60 15 115 30 55 15 132 35 170 45 39 10 165 44 280 75 253 69 355
96 375 100 27 6 284 76 345 94 33 10 63 16 67 14 4 -2 5 -35 3 -74z m-1450
-1024 c143 -2 418 -7 610 -10 692 -12 675 -11 659 -36 -3 -5 -8 -22 -10 -37
-6 -33 -26 -140 -54 -282 -11 -58 -23 -120 -26 -139 -10 -58 -21 -78 -51 -85
-50 -13 -191 -83 -265 -133 -100 -66 -243 -211 -309 -313 -52 -79 -111 -204
-139 -293 l-12 -37 -165 2 -165 3 -22 65 c-104 306 -349 567 -641 681 l-70 27
-12 54 c-7 29 -15 69 -18 88 -3 19 -12 63 -20 97 -8 35 -17 78 -20 96 -16 90
-46 239 -51 252 -6 15 -41 15 781 0z m-553 -792 c182 -94 335 -257 429 -457
21 -46 39 -91 39 -100 0 -15 -17 -17 -147 -15 -162 1 -208 11 -253 54 -42 40
-66 106 -89 241 -12 65 -29 163 -39 217 -11 53 -17 97 -15 97 2 0 36 -17 75
-37z m1664 20 c-6 -22 -25 -120 -46 -233 -6 -30 -12 -66 -15 -80 -3 -14 -7
-36 -10 -50 -14 -74 -42 -137 -76 -171 -49 -49 -106 -60 -277 -57 l-131 3 33
82 c82 203 257 394 453 493 68 35 76 36 69 13z"/>
</g>
</svg>
